<svg width="139" height="39" viewBox="0 0 139 39" fill="none" xmlns="http://www.w3.org/2000/svg">
<path d="M37.8397 15.0762H27.3086V37.0308C27.8441 37.1379 30.9826 36.5102 32.4849 36.1829C36.8758 34.5051 37.8843 29.6233 37.8397 27.3922V23.6438V15.0762Z" fill="white"/>
<path d="M10.6203 1.95703H20.9729V8.87362H11.2897C8.14819 8.80222 7.30332 11.7295 7.27357 13.2021V15.7902V26.3213C7.41637 27.8563 8.25528 29.1028 8.65689 29.5341C9.40656 29.9982 10.4864 30.2332 10.9327 30.2927H13.3869H23.3379C23.7663 30.2927 24.6766 30.025 25.0782 29.8911C25.4709 29.8911 26.045 29.2664 26.283 28.954V36.9416H9.50473C8.11249 36.9059 5.9795 36.2722 5.08704 35.9599C3.15932 35.3887 1.75518 33.2825 1.29407 32.3008C0.6158 31.5154 0.148744 28.2252 0 26.6783V13.2021L0.267739 10.5693C0.303437 7.39213 2.21628 5.08065 3.16824 4.32206C4.45339 2.82272 8.67177 2.12065 10.6203 1.95703Z" fill="white"/>
<rect x="27.3086" y="1.95703" width="10.5311" height="9.28162" rx="2.4989" fill="white"/>
<path d="M55.4931 9.18702C53.1633 9.18702 51.3704 10.0075 50.1144 11.6484C48.8786 13.2691 48.2607 15.376 48.2607 17.9692C48.2607 20.542 48.99 22.7198 50.4487 24.5026C51.9073 26.2853 53.8015 27.1767 56.1312 27.1767C59.2308 27.1767 61.4086 25.6269 62.6646 22.5274L64.731 22.9832C64.731 23.1655 64.4677 23.9961 63.9409 25.475C63.4142 26.9336 63.0901 27.6528 62.9685 27.6325C60.8616 28.7873 58.3799 29.3647 55.5235 29.3647C51.9985 29.3647 49.1116 28.3821 46.8629 26.417C44.6344 24.4519 43.5202 21.8588 43.5202 18.6377C43.5202 14.9911 44.675 12.1549 46.9844 10.129C49.3142 8.08292 52.2922 7.05986 55.9185 7.05986C57.5189 7.05986 59.2511 7.28271 61.1149 7.7284C62.067 7.91072 62.928 8.06266 63.6978 8.18422C63.9207 8.65017 64.0321 9.45038 64.0321 10.5849C64.0321 11.7194 63.9713 12.8741 63.8498 14.0491L61.6618 13.806C61.52 12.6107 61.2364 11.6991 60.811 11.0711C59.9399 9.81504 58.1672 9.18702 55.4931 9.18702ZM75.6275 29.0608L70.8566 29C69.7626 29 68.4458 29.0304 66.9062 29.0912L66.5415 27.4502C67.5139 27.43 68.1521 27.3287 68.4559 27.1463C68.7801 26.964 68.9421 26.7006 68.9421 26.3562L69.0637 10.0683C69.0637 9.70362 68.9219 9.43013 68.6383 9.2478C68.3749 9.06547 67.838 8.97431 67.0277 8.97431L66.6327 7.33335C69.0637 7.39413 70.7249 7.42452 71.6163 7.42452C72.5279 7.42452 73.7536 7.39413 75.2932 7.33335L75.6579 8.97431C74.6855 8.99456 74.0372 9.09586 73.7131 9.27818C73.4092 9.46051 73.2572 9.72388 73.2572 10.0683V25.5358C73.2572 26.6095 73.7536 27.1463 74.7463 27.1463H77.6027C80.3376 27.1463 82.2014 25.6877 83.1941 22.7705L84.8351 23.1047C84.8351 23.4491 84.5413 24.5228 83.9538 26.3259C83.3663 28.1086 82.9308 29 82.6471 29L75.6275 29.0608ZM91.9409 15.842V26.6905C91.9409 27.0147 92.0523 27.2578 92.2751 27.4198C92.5183 27.5616 93.0045 27.6325 93.7338 27.6325L94.068 29.0912C91.9409 29.0304 90.462 29 89.6314 29C88.821 29 87.7372 29.0304 86.3799 29.0912L86.076 27.6325C86.9066 27.6123 87.4637 27.5312 87.7473 27.3894C88.031 27.2274 88.1728 26.9944 88.1728 26.6905V19.3974C88.1728 18.9314 88.0512 18.5769 87.8081 18.3338C87.565 18.0704 87.0788 17.9388 86.3495 17.9388H85.9544L85.529 16.6929C87.3523 16.2674 89.1553 15.7508 90.9381 15.1431C91.3635 15.1431 91.637 15.1937 91.7586 15.295C91.8801 15.376 91.9409 15.5584 91.9409 15.842ZM89.996 12.2562C89.4491 12.2562 88.973 12.0739 88.5678 11.7092C88.1626 11.3446 87.9601 10.8786 87.9601 10.3114C87.9601 9.74414 88.1728 9.2478 88.5982 8.82237C89.0439 8.39693 89.5402 8.18422 90.0872 8.18422C90.6342 8.18422 91.1103 8.36654 91.5154 8.7312C91.9206 9.09586 92.1232 9.56181 92.1232 10.129C92.1232 10.6963 91.9004 11.1926 91.4547 11.6181C91.0292 12.0435 90.543 12.2562 89.996 12.2562ZM107.814 21.8284H99.5481C99.5481 23.0034 99.7709 24.1075 100.217 25.1407C100.48 25.7485 100.905 26.2448 101.493 26.6297C102.101 27.0147 102.789 27.2071 103.559 27.2071C104.329 27.2071 105.038 27.0552 105.686 26.7513C106.355 26.4271 106.801 26.1537 107.024 25.9308C107.267 25.6877 107.439 25.6269 107.54 25.7485L108.026 26.417C107.338 27.2679 106.477 27.9769 105.443 28.5442C104.43 29.0912 103.438 29.3647 102.465 29.3647C100.277 29.3647 98.5858 28.7468 97.3905 27.511C96.1953 26.255 95.5976 24.5735 95.5976 22.4666C95.5976 20.3394 96.2662 18.6276 97.6033 17.331C98.9403 16.0345 100.47 15.3862 102.192 15.3862C103.914 15.3862 105.322 15.8825 106.416 16.8752C107.53 17.8679 108.087 19.367 108.087 21.3726C108.087 21.6765 107.996 21.8284 107.814 21.8284ZM104.592 20.0052C104.592 18.1616 103.833 17.2398 102.313 17.2398C101.564 17.2398 100.956 17.5235 100.49 18.0907C100.024 18.6579 99.7507 19.2961 99.6696 20.0052H104.592ZM115.307 15.9332C115.327 16.075 115.337 16.1965 115.337 16.2978C115.337 16.3991 115.347 16.551 115.368 16.7536C115.388 16.9562 115.398 17.1082 115.398 17.2095C116.938 16.3991 118.062 15.8926 118.771 15.6901C119.48 15.4875 120.088 15.3862 120.594 15.3862C121.769 15.3862 122.722 15.8116 123.451 16.6625C124.18 17.5133 124.545 18.7491 124.545 20.3698V26.6905C124.545 26.8728 124.555 27.0248 124.575 27.1463C124.616 27.2476 124.737 27.359 124.94 27.4806C125.142 27.5819 125.436 27.6325 125.821 27.6325L126.155 29.0912C124.028 29.0304 122.691 29 122.144 29C121.597 29 120.645 29.0304 119.288 29.0912L118.984 27.6325C119.673 27.6123 120.139 27.5312 120.382 27.3894C120.625 27.2274 120.756 26.9944 120.777 26.6905V21.2814C120.777 20.2077 120.594 19.4176 120.23 18.9112C119.885 18.3845 119.288 18.1211 118.437 18.1211C117.606 18.1211 116.644 18.3541 115.55 18.82V26.6905C115.55 26.8728 115.56 27.0248 115.58 27.1463C115.621 27.2476 115.742 27.359 115.945 27.4806C116.148 27.5819 116.441 27.6325 116.826 27.6325L117.161 29.0912C115.033 29.0304 113.696 29 113.149 29C112.602 29 111.65 29.0304 110.293 29.0912L109.989 27.6325C110.678 27.6123 111.144 27.5312 111.387 27.3894C111.63 27.2274 111.762 26.9944 111.782 26.6905V19.3974C111.782 18.9112 111.67 18.5769 111.448 18.3946C111.225 18.192 110.941 18.0907 110.597 18.0907C110.273 18.0907 110.029 18.1008 109.867 18.1211L109.442 16.8752C110.698 16.5713 112.4 15.9939 114.547 15.1431C114.811 15.1431 114.973 15.2038 115.033 15.3254C115.114 15.4267 115.175 15.5179 115.216 15.5989C115.256 15.6799 115.287 15.7913 115.307 15.9332ZM132.69 24.5937C132.69 25.4041 132.842 26.0422 133.146 26.5082C133.47 26.9741 133.885 27.2071 134.391 27.2071C134.898 27.2071 135.496 26.9437 136.184 26.417C136.346 26.2955 136.468 26.2853 136.549 26.3866L137.157 27.2071C136.63 27.7136 136.215 28.0884 135.911 28.3315C135.04 29 134.007 29.3343 132.811 29.3343C131.616 29.3343 130.654 28.9392 129.924 28.1491C129.215 27.3388 128.861 26.4373 128.861 25.4446V17.8476H127.341L127.19 16.7232C128.304 16.3586 129.145 15.8724 129.712 15.2646C130.299 14.6366 130.846 13.8161 131.353 12.8032H132.082C132.285 12.8032 132.416 12.8437 132.477 12.9247C132.538 13.0058 132.568 13.1476 132.568 13.3502L132.69 15.9332H136.549C136.59 16.1155 136.61 16.3687 136.61 16.6929C136.61 17.017 136.478 17.4019 136.215 17.8476H132.72L132.69 24.5937Z" fill="white"/>
</svg>
