<svg width="108" height="31" viewBox="0 0 108 31" fill="none" xmlns="http://www.w3.org/2000/svg">
<path d="M29.8869 12.0836H21.7539V29.0389C22.1674 29.1216 24.5913 28.6368 25.7515 28.3841C29.1425 27.0883 29.9214 23.3182 29.8869 21.5951V18.7003V12.0836Z" fill="#28ACE2"/>
<path d="M8.866 1.95178H16.8612V7.29338H9.38293C6.95681 7.23824 6.30433 9.49894 6.28136 10.6362V12.635V20.768C6.39163 21.9535 7.03952 22.9161 7.34968 23.2493C7.92864 23.6077 8.76261 23.7892 9.10723 23.8351H11.0026H18.6876C19.0185 23.8351 19.7215 23.6283 20.0317 23.5249C20.3349 23.5249 20.7783 23.0425 20.9621 22.8012V28.9699H8.00445C6.92924 28.9424 5.28196 28.453 4.59272 28.2118C3.10397 27.7707 2.01956 26.1441 1.66346 25.3859C1.13964 24.7794 0.778936 22.2384 0.664062 21.0437V10.6362L0.870834 8.60293C0.898404 6.14924 2.37567 4.36412 3.11086 3.77826C4.10336 2.62034 7.36116 2.07814 8.866 1.95178Z" fill="#01589A"/>
<rect x="21.7539" y="1.95178" width="8.13301" height="7.16808" rx="1.92987" fill="#28ACE2"/>
<path d="M43.5212 7.19868C41.7219 7.19868 40.3373 7.83232 39.3673 9.09961C38.4129 10.3512 37.9357 11.9784 37.9357 13.981C37.9357 15.968 38.499 17.6499 39.6254 19.0267C40.7519 20.4035 42.2148 21.0919 44.014 21.0919C46.4078 21.0919 48.0897 19.895 49.0597 17.5013L50.6555 17.8533C50.6555 17.9941 50.4521 18.6356 50.0454 19.7777C49.6386 20.9042 49.3882 21.4596 49.2944 21.4439C47.6672 22.3357 45.7507 22.7816 43.5446 22.7816C40.8223 22.7816 38.5928 22.0228 36.8562 20.5052C35.1352 18.9876 34.2747 16.985 34.2747 14.4973C34.2747 11.6811 35.1665 9.49074 36.9501 7.92619C38.7493 6.34599 41.0492 5.55589 43.8497 5.55589C45.0857 5.55589 46.4234 5.728 47.8628 6.0722C48.5981 6.21301 49.2631 6.33035 49.8576 6.42422C50.0297 6.78407 50.1158 7.40207 50.1158 8.27822C50.1158 9.15437 50.0688 10.0462 49.975 10.9536L48.2852 10.7659C48.1757 9.84277 47.9567 9.13872 47.6281 8.65371C46.9554 7.68369 45.5864 7.19868 43.5212 7.19868ZM59.0707 22.5469L55.3862 22.5C54.5414 22.5 53.5244 22.5235 52.3354 22.5704L52.0537 21.3031C52.8047 21.2875 53.2975 21.2092 53.5322 21.0684C53.7826 20.9276 53.9077 20.7242 53.9077 20.4583L54.0016 7.87926C54.0016 7.59764 53.8921 7.38642 53.673 7.24561C53.4697 7.1048 53.055 7.0344 52.4292 7.0344L52.1241 5.76711C54.0016 5.81405 55.2845 5.83751 55.9729 5.83751C56.677 5.83751 57.6235 5.81405 58.8126 5.76711L59.0942 7.0344C58.3432 7.05004 57.8426 7.12827 57.5922 7.26908C57.3576 7.40989 57.2402 7.61328 57.2402 7.87926V19.8246C57.2402 20.6538 57.6235 21.0684 58.3902 21.0684H60.5962C62.7083 21.0684 64.1477 19.942 64.9144 17.689L66.1816 17.9472C66.1816 18.2131 65.9548 19.0423 65.5011 20.4348C65.0473 21.8116 64.711 22.5 64.4919 22.5L59.0707 22.5469ZM71.6694 12.3382V20.7164C71.6694 20.9667 71.7554 21.1545 71.9275 21.2796C72.1153 21.3892 72.4908 21.4439 73.054 21.4439L73.3121 22.5704C71.6694 22.5235 70.5272 22.5 69.8858 22.5C69.26 22.5 68.4229 22.5235 67.3747 22.5704L67.14 21.4439C67.7815 21.4283 68.2117 21.3657 68.4307 21.2562C68.6498 21.131 68.7593 20.9511 68.7593 20.7164V15.084C68.7593 14.7242 68.6654 14.4504 68.4777 14.2626C68.2899 14.0592 67.9144 13.9575 67.3512 13.9575H67.0461L66.7176 12.9953C68.1257 12.6668 69.5181 12.2678 70.8949 11.7985C71.2235 11.7985 71.4347 11.8376 71.5286 11.9158C71.6224 11.9784 71.6694 12.1192 71.6694 12.3382ZM70.1674 9.56897C69.745 9.56897 69.3773 9.42816 69.0644 9.14654C68.7515 8.86492 68.595 8.50508 68.595 8.067C68.595 7.62893 68.7593 7.24561 69.0879 6.91706C69.4321 6.5885 69.8154 6.42422 70.2378 6.42422C70.6602 6.42422 71.0279 6.56503 71.3408 6.84665C71.6537 7.12827 71.8102 7.48812 71.8102 7.92619C71.8102 8.36427 71.6381 8.74758 71.2939 9.07614C70.9653 9.40469 70.5898 9.56897 70.1674 9.56897ZM83.9277 16.9615H77.5443C77.5443 17.8689 77.7164 18.7216 78.0606 19.5195C78.264 19.9889 78.5926 20.3722 79.0463 20.6695C79.5157 20.9667 80.0476 21.1154 80.6421 21.1154C81.2367 21.1154 81.7843 20.998 82.2849 20.7633C82.8012 20.513 83.1454 20.3018 83.3175 20.1297C83.5053 19.942 83.6383 19.895 83.7165 19.9889L84.092 20.5052C83.56 21.1623 82.8951 21.7099 82.0972 22.148C81.3149 22.5704 80.5483 22.7816 79.7973 22.7816C78.1076 22.7816 76.8012 22.3044 75.8781 21.3501C74.955 20.38 74.4934 19.0815 74.4934 17.4543C74.4934 15.8115 75.0098 14.4895 76.0424 13.4882C77.075 12.4869 78.2562 11.9862 79.5861 11.9862C80.9159 11.9862 82.0033 12.3695 82.8482 13.1362C83.7087 13.9028 84.1389 15.0606 84.1389 16.6095C84.1389 16.8441 84.0685 16.9615 83.9277 16.9615ZM81.4401 15.5534C81.4401 14.1296 80.8534 13.4178 79.6799 13.4178C79.1011 13.4178 78.6317 13.6368 78.2718 14.0749C77.912 14.513 77.7008 15.0058 77.6382 15.5534H81.4401ZM89.7146 12.4086C89.7303 12.5182 89.7381 12.612 89.7381 12.6903C89.7381 12.7685 89.7459 12.8858 89.7616 13.0423C89.7772 13.1987 89.7851 13.3161 89.7851 13.3943C90.9741 12.7685 91.8424 12.3773 92.39 12.2209C92.9376 12.0644 93.407 11.9862 93.7981 11.9862C94.7056 11.9862 95.4409 12.3148 96.0041 12.9719C96.5674 13.629 96.849 14.5834 96.849 15.835V20.7164C96.849 20.8572 96.8568 20.9746 96.8725 21.0684C96.9038 21.1467 96.9976 21.2327 97.1541 21.3266C97.3106 21.4048 97.5374 21.4439 97.8347 21.4439L98.0928 22.5704C96.45 22.5235 95.4174 22.5 94.995 22.5C94.5726 22.5 93.8372 22.5235 92.789 22.5704L92.5543 21.4439C93.0863 21.4283 93.4461 21.3657 93.6339 21.2562C93.8216 21.131 93.9233 20.9511 93.9389 20.7164V16.5391C93.9389 15.7098 93.7981 15.0997 93.5165 14.7085C93.2505 14.3017 92.789 14.0984 92.1319 14.0984C91.4904 14.0984 90.7473 14.2783 89.9024 14.6381V20.7164C89.9024 20.8572 89.9102 20.9746 89.9259 21.0684C89.9572 21.1467 90.051 21.2327 90.2075 21.3266C90.3639 21.4048 90.5908 21.4439 90.8881 21.4439L91.1462 22.5704C89.5034 22.5235 88.4708 22.5 88.0484 22.5C87.626 22.5 86.8906 22.5235 85.8424 22.5704L85.6077 21.4439C86.1396 21.4283 86.4995 21.3657 86.6872 21.2562C86.875 21.131 86.9767 20.9511 86.9923 20.7164V15.084C86.9923 14.7085 86.9063 14.4504 86.7342 14.3096C86.5621 14.1531 86.343 14.0749 86.0771 14.0749C85.8267 14.0749 85.639 14.0827 85.5138 14.0984L85.1853 13.1362C86.1553 12.9015 87.4695 12.4556 89.1279 11.7985C89.3313 11.7985 89.4565 11.8454 89.5034 11.9393C89.566 12.0175 89.613 12.0879 89.6442 12.1505C89.6755 12.2131 89.699 12.2991 89.7146 12.4086ZM103.139 19.0971C103.139 19.7229 103.257 20.2158 103.491 20.5756C103.742 20.9354 104.062 21.1154 104.453 21.1154C104.845 21.1154 105.306 20.912 105.838 20.5052C105.963 20.4113 106.057 20.4035 106.12 20.4817L106.589 21.1154C106.182 21.5065 105.862 21.796 105.627 21.9837C104.954 22.5 104.156 22.7582 103.233 22.7582C102.31 22.7582 101.567 22.4531 101.004 21.8429C100.456 21.2171 100.182 20.5208 100.182 19.7542V13.8871H99.0088L98.8915 13.0188C99.752 12.7372 100.401 12.3617 100.839 11.8923C101.293 11.4073 101.716 10.7737 102.107 9.9914H102.67C102.826 9.9914 102.928 10.0227 102.975 10.0853C103.022 10.1479 103.045 10.2574 103.045 10.4138L103.139 12.4086H106.12C106.151 12.5494 106.167 12.745 106.167 12.9953C106.167 13.2457 106.065 13.5429 105.862 13.8871H103.163L103.139 19.0971Z" fill="#01589A"/>
</svg>
